<svg width="100%" viewBox="0 0 680 360" xmlns="http://www.w3.org/2000/svg">
<style>
  .bg { fill: #0a0a0f; }
  .scanline { stroke: #1a1a2e; }
</style>

<rect x="0" y="0" width="680" height="360" rx="8" class="bg"/>

<g opacity="0.3">
  <line x1="0" y1="20" x2="680" y2="20" class="scanline" stroke-width="0.5"/>
  <line x1="0" y1="40" x2="680" y2="40" class="scanline" stroke-width="0.5"/>
  <line x1="0" y1="60" x2="680" y2="60" class="scanline" stroke-width="0.5"/>
  <line x1="0" y1="80" x2="680" y2="80" class="scanline" stroke-width="0.5"/>
  <line x1="0" y1="100" x2="680" y2="100" class="scanline" stroke-width="0.5"/>
  <line x1="0" y1="120" x2="680" y2="120" class="scanline" stroke-width="0.5"/>
  <line x1="0" y1="140" x2="680" y2="140" class="scanline" stroke-width="0.5"/>
  <line x1="0" y1="160" x2="680" y2="160" class="scanline" stroke-width="0.5"/>
  <line x1="0" y1="180" x2="680" y2="180" class="scanline" stroke-width="0.5"/>
  <line x1="0" y1="200" x2="680" y2="200" class="scanline" stroke-width="0.5"/>
  <line x1="0" y1="220" x2="680" y2="220" class="scanline" stroke-width="0.5"/>
  <line x1="0" y1="240" x2="680" y2="240" class="scanline" stroke-width="0.5"/>
  <line x1="0" y1="260" x2="680" y2="260" class="scanline" stroke-width="0.5"/>
  <line x1="0" y1="280" x2="680" y2="280" class="scanline" stroke-width="0.5"/>
  <line x1="0" y1="300" x2="680" y2="300" class="scanline" stroke-width="0.5"/>
  <line x1="0" y1="320" x2="680" y2="320" class="scanline" stroke-width="0.5"/>
  <line x1="0" y1="340" x2="680" y2="340" class="scanline" stroke-width="0.5"/>
</g>

<g opacity="0.06">
  <text x="15" y="55" font-family="monospace" font-size="10" fill="#00ffaa">01001100 01001100 01001101 00100000 01100110 01101001</text>
  <text x="15" y="75" font-family="monospace" font-size="10" fill="#00ffaa">01101110 01100101 00101101 01110100 01110101 01101110</text>
  <text x="15" y="95" font-family="monospace" font-size="10" fill="#00ffaa">01100101 00100000 01010100 01101111 01101111 01101100</text>
  <text x="400" y="295" font-family="monospace" font-size="10" fill="#ff2266">10110010 01001010 11010010 00101110 01110111 01100101</text>
  <text x="400" y="315" font-family="monospace" font-size="10" fill="#ff2266">01101001 01100111 01101000 01110100 01011111 01101111</text>
  <text x="400" y="335" font-family="monospace" font-size="10" fill="#ff2266">01110010 01110100 01101000 01101111 00101110 00101110</text>
</g>

<g transform="translate(165, 175)">

  <circle cx="0" cy="0" r="100" fill="none" stroke="#00ffaa" stroke-width="0.3" stroke-dasharray="2 8" opacity="0.2"/>
  <circle cx="0" cy="0" r="78" fill="none" stroke="#aa44ff" stroke-width="0.4" stroke-dasharray="1 6" opacity="0.25"/>
  <circle cx="0" cy="0" r="56" fill="none" stroke="#ff2266" stroke-width="0.3" stroke-dasharray="1 5" opacity="0.2"/>

  <g stroke="#00ffaa" stroke-width="0.6" fill="none" opacity="0.15">
    <path d="M-95,-30 L-60,-25 L-30,-40 L0,-20 L30,-35 L60,-25 L95,-30"/>
    <path d="M-95,10 L-60,5 L-25,20 L10,0 L40,15 L70,5 L95,10"/>
    <path d="M-90,45 L-55,40 L-20,55 L15,35 L45,50 L75,40 L95,45"/>
  </g>

  <g stroke="#aa44ff" stroke-width="0.8" fill="none" opacity="0.25">
    <path d="M-70,-50 Q-30,-70 10,-45 Q50,-20 80,-40"/>
    <path d="M-65,30 Q-20,10 20,35 Q60,60 85,30"/>
  </g>

  <g stroke="#ff2266" stroke-width="0.6" fill="none" opacity="0.2">
    <path d="M-75,-10 Q-35,-30 5,0 Q45,30 80,5"/>
  </g>

  <circle cx="-60" cy="-25" r="2.5" fill="#00ffaa" opacity="0.7"/>
  <circle cx="-30" cy="-40" r="2" fill="#00ffaa" opacity="0.6"/>
  <circle cx="0" cy="-20" r="3" fill="#00ffaa" opacity="0.8"/>
  <circle cx="30" cy="-35" r="2" fill="#00ffaa" opacity="0.55"/>
  <circle cx="60" cy="-25" r="2.5" fill="#00ffaa" opacity="0.65"/>

  <circle cx="-70" cy="-50" r="2" fill="#aa44ff" opacity="0.6"/>
  <circle cx="10" cy="-45" r="2.5" fill="#aa44ff" opacity="0.7"/>
  <circle cx="80" cy="-40" r="2" fill="#aa44ff" opacity="0.55"/>
  <circle cx="-65" cy="30" r="2" fill="#aa44ff" opacity="0.5"/>
  <circle cx="20" cy="35" r="2.5" fill="#aa44ff" opacity="0.65"/>
  <circle cx="85" cy="30" r="2" fill="#aa44ff" opacity="0.5"/>

  <circle cx="-75" cy="-10" r="1.5" fill="#ff2266" opacity="0.5"/>
  <circle cx="5" cy="0" r="2" fill="#ff2266" opacity="0.6"/>
  <circle cx="80" cy="5" r="1.5" fill="#ff2266" opacity="0.45"/>

  <circle cx="-60" cy="5" r="1.5" fill="#00ffaa" opacity="0.3"/>
  <circle cx="-25" cy="20" r="1.5" fill="#00ffaa" opacity="0.3"/>
  <circle cx="10" cy="0" r="2" fill="#00ffaa" opacity="0.35"/>
  <circle cx="40" cy="15" r="1.5" fill="#00ffaa" opacity="0.3"/>
  <circle cx="70" cy="5" r="1.5" fill="#00ffaa" opacity="0.25"/>
  <circle cx="-55" cy="40" r="1.5" fill="#00ffaa" opacity="0.2"/>
  <circle cx="-20" cy="55" r="1.5" fill="#00ffaa" opacity="0.2"/>
  <circle cx="15" cy="35" r="1.5" fill="#00ffaa" opacity="0.2"/>
  <circle cx="45" cy="50" r="1.5" fill="#00ffaa" opacity="0.2"/>

  <rect x="-28" y="-28" width="56" height="56" rx="4" fill="none" stroke="#aa44ff" stroke-width="1.5" opacity="0.6"/>
  <rect x="-22" y="-22" width="44" height="44" rx="2" fill="#aa44ff" opacity="0.12"/>

  <g opacity="0.4">
    <line x1="-28" y1="-28" x2="-38" y2="-38" stroke="#aa44ff" stroke-width="0.8"/>
    <line x1="28" y1="-28" x2="38" y2="-38" stroke="#aa44ff" stroke-width="0.8"/>
    <line x1="-28" y1="28" x2="-38" y2="38" stroke="#aa44ff" stroke-width="0.8"/>
    <line x1="28" y1="28" x2="38" y2="38" stroke="#aa44ff" stroke-width="0.8"/>
    <rect x="-41" y="-41" width="6" height="6" rx="1" fill="none" stroke="#aa44ff" stroke-width="0.6"/>
    <rect x="35" y="-41" width="6" height="6" rx="1" fill="none" stroke="#aa44ff" stroke-width="0.6"/>
    <rect x="-41" y="35" width="6" height="6" rx="1" fill="none" stroke="#aa44ff" stroke-width="0.6"/>
    <rect x="35" y="35" width="6" height="6" rx="1" fill="none" stroke="#aa44ff" stroke-width="0.6"/>
  </g>

  <text x="0" y="2" text-anchor="middle" font-family="monospace" font-size="22" font-weight="bold" fill="#aa44ff" letter-spacing="2" opacity="0.95">LLM</text>

  <line x1="-100" y1="0" x2="-32" y2="0" stroke="#00ffaa" stroke-width="0.5" opacity="0.15"/>
  <line x1="32" y1="0" x2="100" y2="0" stroke="#00ffaa" stroke-width="0.5" opacity="0.15"/>
  <line x1="0" y1="-100" x2="0" y2="-32" stroke="#aa44ff" stroke-width="0.5" opacity="0.1"/>
  <line x1="0" y1="32" x2="0" y2="100" stroke="#aa44ff" stroke-width="0.5" opacity="0.1"/>
</g>

<line x1="300" y1="95" x2="300" y2="265" stroke="#aa44ff" stroke-width="0.5" opacity="0.15"/>

<text x="340" y="105" font-family="monospace" font-size="11" fill="#00ffaa" letter-spacing="5" opacity="0.4">SYSTEM.INIT</text>

<text x="340" y="148" font-family="sans-serif" font-size="46" font-weight="500" fill="#e8e6e0" letter-spacing="-1">fine-tune</text>

<rect x="340" y="160" width="200" height="1.5" rx="1" fill="#aa44ff" opacity="0.5"/>
<rect x="340" y="160" width="80" height="1.5" rx="1" fill="#00ffaa" opacity="0.7"/>
<rect x="540" y="160" width="30" height="1.5" rx="1" fill="#ff2266" opacity="0.4"/>

<text x="340" y="195" font-family="sans-serif" font-size="30" font-weight="500" fill="#888780" letter-spacing="3">toolkit</text>

<g transform="translate(340, 225)">
  <rect x="0" y="0" width="2" height="12" fill="#ff2266" opacity="0.6"/>
  <text x="10" y="11" font-family="monospace" font-size="11" fill="#5F5E5A" letter-spacing="0.5">QLoRA / abliteration / GGUF</text>
</g>

<g transform="translate(340, 248)">
  <rect x="0" y="0" width="2" height="12" fill="#00ffaa" opacity="0.6"/>
  <text x="10" y="11" font-family="monospace" font-size="11" fill="#5F5E5A" letter-spacing="0.5">consumer GPU / 2GB+ VRAM</text>
</g>

<g transform="translate(340, 282)">
  <rect x="0" y="0" width="50" height="20" rx="2" fill="none" stroke="#00ffaa" stroke-width="0.8" opacity="0.4"/>
  <text x="25" y="14" font-family="monospace" font-size="9" fill="#00ffaa" text-anchor="middle" opacity="0.6">SETUP</text>

  <line x1="54" y1="10" x2="62" y2="10" stroke="#444" stroke-width="0.8"/>
  <circle cx="58" cy="10" r="1" fill="#00ffaa" opacity="0.4"/>

  <rect x="66" y="0" width="50" height="20" rx="2" fill="none" stroke="#aa44ff" stroke-width="0.8" opacity="0.4"/>
  <text x="91" y="14" font-family="monospace" font-size="9" fill="#aa44ff" text-anchor="middle" opacity="0.6">TRAIN</text>

  <line x1="120" y1="10" x2="128" y2="10" stroke="#444" stroke-width="0.8"/>
  <circle cx="124" cy="10" r="1" fill="#aa44ff" opacity="0.4"/>

  <rect x="132" y="0" width="65" height="20" rx="2" fill="none" stroke="#ff2266" stroke-width="0.8" opacity="0.4"/>
  <text x="164" y="14" font-family="monospace" font-size="9" fill="#ff2266" text-anchor="middle" opacity="0.6">ABLITERATE</text>

  <line x1="201" y1="10" x2="209" y2="10" stroke="#444" stroke-width="0.8"/>
  <circle cx="205" cy="10" r="1" fill="#ff2266" opacity="0.4"/>

  <rect x="213" y="0" width="55" height="20" rx="2" fill="none" stroke="#00ffaa" stroke-width="0.8" opacity="0.4"/>
  <text x="240" y="14" font-family="monospace" font-size="9" fill="#00ffaa" text-anchor="middle" opacity="0.6">EXPORT</text>
</g>

<g opacity="0.06">
  <rect x="580" y="80" width="1" height="40" fill="#00ffaa"/>
  <rect x="590" y="90" width="1" height="55" fill="#00ffaa"/>
  <rect x="600" y="75" width="1" height="35" fill="#aa44ff"/>
  <rect x="610" y="85" width="1" height="50" fill="#00ffaa"/>
  <rect x="620" y="95" width="1" height="30" fill="#ff2266"/>
  <rect x="630" y="80" width="1" height="45" fill="#00ffaa"/>
  <rect x="640" y="90" width="1" height="25" fill="#aa44ff"/>
  <rect x="650" y="78" width="1" height="38" fill="#00ffaa"/>
  <rect x="660" y="88" width="1" height="42" fill="#ff2266"/>
</g>

<text x="20" y="345" font-family="monospace" font-size="9" fill="#444" letter-spacing="1">v2.0 // MIT LICENSE // CONSUMER HARDWARE</text>
<text x="660" y="345" font-family="monospace" font-size="9" fill="#333" text-anchor="end" letter-spacing="1">0x7F3A</text>

</svg>
